<mxfile host="Electron" agent="Mozilla/5.0 (Windows NT 10.0; Win64; x64) AppleWebKit/537.36 (KHTML, like Gecko) draw.io/27.0.9 Chrome/134.0.6998.205 Electron/35.4.0 Safari/537.36" version="27.0.9" pages="2">
  <diagram id="1zcTAVt1k4KSup7FvAfL" name="Roadmap">
    <mxGraphModel dx="5500" dy="3645" grid="1" gridSize="10" guides="1" tooltips="1" connect="1" arrows="1" fold="1" page="1" pageScale="1" pageWidth="3300" pageHeight="2339" math="0" shadow="0">
      <root>
        <mxCell id="3D7FDG2aXA9G618_Kong-0" />
        <mxCell id="3D7FDG2aXA9G618_Kong-1" parent="3D7FDG2aXA9G618_Kong-0" />
        <mxCell id="wGroBH12Sy7-OgBsN0fJ-4" value="" style="shape=rect;fillColor=#fff2cc;strokeColor=none;fontSize=24;html=1;whiteSpace=wrap;align=left;verticalAlign=top;spacing=5;rounded=0;" parent="3D7FDG2aXA9G618_Kong-1" vertex="1">
          <mxGeometry x="-2520" y="-1560" width="580" height="276.8" as="geometry" />
        </mxCell>
        <mxCell id="wGroBH12Sy7-OgBsN0fJ-7" value="Головной&lt;div&gt;&lt;span style=&quot;background-color: transparent; color: light-dark(rgb(51, 51, 51), rgb(193, 193, 193));&quot;&gt;офис&lt;/span&gt;&lt;/div&gt;" style="rounded=0;whiteSpace=wrap;html=1;fillColor=#f5f5f5;fontColor=#333333;strokeColor=#666666;fontSize=18;" parent="3D7FDG2aXA9G618_Kong-1" vertex="1">
          <mxGeometry x="-2640" y="-1560" width="120" height="276.8" as="geometry" />
        </mxCell>
        <mxCell id="wGroBH12Sy7-OgBsN0fJ-9" value="Q1" style="shape=step;perimeter=stepPerimeter;whiteSpace=wrap;html=1;fixedSize=1;size=10;fillColor=#f5f5f5;strokeColor=#666666;fontSize=18;fontStyle=1;align=center;rounded=0;fontColor=#333333;" parent="3D7FDG2aXA9G618_Kong-1" vertex="1">
          <mxGeometry x="-2520" y="-1720" width="580" height="74.4" as="geometry" />
        </mxCell>
        <mxCell id="g2w230mht6LrJZJ9aszQ-7" value="" style="shape=rect;fillColor=#fff2cc;strokeColor=none;fontSize=24;html=1;whiteSpace=wrap;align=left;verticalAlign=top;spacing=5;rounded=0;" parent="3D7FDG2aXA9G618_Kong-1" vertex="1">
          <mxGeometry x="-1940" y="-1560" width="580" height="276.8" as="geometry" />
        </mxCell>
        <mxCell id="g2w230mht6LrJZJ9aszQ-8" value="Q2" style="shape=step;perimeter=stepPerimeter;whiteSpace=wrap;html=1;fixedSize=1;size=10;fillColor=#f5f5f5;strokeColor=#666666;fontSize=18;fontStyle=1;align=center;rounded=0;fontColor=#333333;" parent="3D7FDG2aXA9G618_Kong-1" vertex="1">
          <mxGeometry x="-1940" y="-1720" width="580" height="74.4" as="geometry" />
        </mxCell>
        <mxCell id="g2w230mht6LrJZJ9aszQ-13" value="" style="shape=rect;fillColor=#fff2cc;strokeColor=none;fontSize=24;html=1;whiteSpace=wrap;align=left;verticalAlign=top;spacing=5;rounded=0;" parent="3D7FDG2aXA9G618_Kong-1" vertex="1">
          <mxGeometry x="-1360" y="-1560" width="580" height="276.8" as="geometry" />
        </mxCell>
        <mxCell id="g2w230mht6LrJZJ9aszQ-14" value="Q3" style="shape=step;perimeter=stepPerimeter;whiteSpace=wrap;html=1;fixedSize=1;size=10;fillColor=#f5f5f5;strokeColor=#666666;fontSize=18;fontStyle=1;align=center;rounded=0;fontColor=#333333;" parent="3D7FDG2aXA9G618_Kong-1" vertex="1">
          <mxGeometry x="-1360" y="-1720" width="580" height="74.4" as="geometry" />
        </mxCell>
        <mxCell id="g2w230mht6LrJZJ9aszQ-19" value="" style="shape=rect;fillColor=#fff2cc;strokeColor=none;fontSize=24;html=1;whiteSpace=wrap;align=left;verticalAlign=top;spacing=5;rounded=0;" parent="3D7FDG2aXA9G618_Kong-1" vertex="1">
          <mxGeometry x="-780" y="-1560" width="580" height="276.8" as="geometry" />
        </mxCell>
        <mxCell id="g2w230mht6LrJZJ9aszQ-20" value="Q4" style="shape=step;perimeter=stepPerimeter;whiteSpace=wrap;html=1;fixedSize=1;size=10;fillColor=#f5f5f5;strokeColor=#666666;fontSize=18;fontStyle=1;align=center;rounded=0;fontColor=#333333;" parent="3D7FDG2aXA9G618_Kong-1" vertex="1">
          <mxGeometry x="-780" y="-1720" width="580" height="74.4" as="geometry" />
        </mxCell>
        <mxCell id="g2w230mht6LrJZJ9aszQ-29" value="T2 - Аудит информационной безопасности" style="shape=rect;fillColor=#ffe6cc;strokeColor=#d79b00;fontSize=18;html=1;whiteSpace=wrap;align=center;verticalAlign=top;spacing=5;rounded=0;" parent="3D7FDG2aXA9G618_Kong-1" vertex="1">
          <mxGeometry x="-2515" y="-1461.6000000000001" width="205" height="80" as="geometry" />
        </mxCell>
        <mxCell id="g2w230mht6LrJZJ9aszQ-36" value="T1 - Аудит и классификация данных" style="shape=rect;fillColor=#ffe6cc;strokeColor=#d79b00;fontSize=18;html=1;whiteSpace=wrap;align=center;verticalAlign=top;spacing=5;rounded=0;" parent="3D7FDG2aXA9G618_Kong-1" vertex="1">
          <mxGeometry x="-2515" y="-1553.2" width="205" height="80" as="geometry" />
        </mxCell>
        <mxCell id="Rwwb5F9lOs-8TZ5zhWSB-0" value="Аудит" style="shape=step;perimeter=stepPerimeter;whiteSpace=wrap;html=1;fixedSize=1;size=10;fillColor=#f5f5f5;strokeColor=#666666;fontSize=18;fontStyle=1;align=center;rounded=0;fontColor=#333333;" vertex="1" parent="3D7FDG2aXA9G618_Kong-1">
          <mxGeometry x="-2520" y="-1640" width="220" height="74.4" as="geometry" />
        </mxCell>
        <mxCell id="Rwwb5F9lOs-8TZ5zhWSB-1" value="Подготовка хранилища" style="shape=step;perimeter=stepPerimeter;whiteSpace=wrap;html=1;fixedSize=1;size=10;fillColor=#f5f5f5;strokeColor=#666666;fontSize=18;fontStyle=1;align=center;rounded=0;fontColor=#333333;" vertex="1" parent="3D7FDG2aXA9G618_Kong-1">
          <mxGeometry x="-1940" y="-1640" width="440" height="74.4" as="geometry" />
        </mxCell>
        <mxCell id="Rwwb5F9lOs-8TZ5zhWSB-2" value="Разработка сервисов" style="shape=step;perimeter=stepPerimeter;whiteSpace=wrap;html=1;fixedSize=1;size=10;fillColor=#f5f5f5;strokeColor=#666666;fontSize=18;fontStyle=1;align=center;rounded=0;fontColor=#333333;" vertex="1" parent="3D7FDG2aXA9G618_Kong-1">
          <mxGeometry x="-1500" y="-1640" width="880" height="74.4" as="geometry" />
        </mxCell>
        <mxCell id="Rwwb5F9lOs-8TZ5zhWSB-3" value="Миграция" style="shape=step;perimeter=stepPerimeter;whiteSpace=wrap;html=1;fixedSize=1;size=10;fillColor=#f5f5f5;strokeColor=#666666;fontSize=18;fontStyle=1;align=center;rounded=0;fontColor=#333333;" vertex="1" parent="3D7FDG2aXA9G618_Kong-1">
          <mxGeometry x="-620" y="-1640" width="420" height="74.4" as="geometry" />
        </mxCell>
        <mxCell id="Rwwb5F9lOs-8TZ5zhWSB-4" value="Проектирование" style="shape=step;perimeter=stepPerimeter;whiteSpace=wrap;html=1;fixedSize=1;size=10;fillColor=#f5f5f5;strokeColor=#666666;fontSize=18;fontStyle=1;align=center;rounded=0;fontColor=#333333;" vertex="1" parent="3D7FDG2aXA9G618_Kong-1">
          <mxGeometry x="-2300" y="-1640" width="360" height="74.4" as="geometry" />
        </mxCell>
        <mxCell id="Rwwb5F9lOs-8TZ5zhWSB-37" value="T3 - Аудит&lt;div&gt;технического&lt;/div&gt;&lt;div&gt;радара&lt;/div&gt;" style="shape=rect;fillColor=#ffe6cc;strokeColor=#d79b00;fontSize=18;html=1;whiteSpace=wrap;align=center;verticalAlign=top;spacing=5;rounded=0;" vertex="1" parent="3D7FDG2aXA9G618_Kong-1">
          <mxGeometry x="-2515" y="-1370" width="205" height="80" as="geometry" />
        </mxCell>
        <mxCell id="Rwwb5F9lOs-8TZ5zhWSB-38" value="T4 - Разработка&lt;div&gt;плана миграции&lt;/div&gt;" style="shape=rect;fillColor=#ffe6cc;strokeColor=#d79b00;fontSize=18;html=1;whiteSpace=wrap;align=center;verticalAlign=top;spacing=5;rounded=0;" vertex="1" parent="3D7FDG2aXA9G618_Kong-1">
          <mxGeometry x="-2300" y="-1553.2" width="350" height="80" as="geometry" />
        </mxCell>
        <mxCell id="Rwwb5F9lOs-8TZ5zhWSB-39" value="T5 - Разработка&lt;div&gt;организации доменов&lt;/div&gt;&lt;div&gt;и их политик&lt;/div&gt;" style="shape=rect;fillColor=#ffe6cc;strokeColor=#d79b00;fontSize=18;html=1;whiteSpace=wrap;align=center;verticalAlign=top;spacing=5;rounded=0;" vertex="1" parent="3D7FDG2aXA9G618_Kong-1">
          <mxGeometry x="-2300" y="-1461.6000000000001" width="350" height="80" as="geometry" />
        </mxCell>
        <mxCell id="Rwwb5F9lOs-8TZ5zhWSB-40" value="T6 - Разработка&lt;div&gt;структур данных&lt;/div&gt;&lt;div&gt;и их стандартизация&lt;/div&gt;" style="shape=rect;fillColor=#ffe6cc;strokeColor=#d79b00;fontSize=18;html=1;whiteSpace=wrap;align=center;verticalAlign=top;spacing=5;rounded=0;" vertex="1" parent="3D7FDG2aXA9G618_Kong-1">
          <mxGeometry x="-2300" y="-1370" width="350" height="80" as="geometry" />
        </mxCell>
        <mxCell id="Rwwb5F9lOs-8TZ5zhWSB-43" value="Отдел&lt;div&gt;разработки&lt;/div&gt;" style="rounded=0;whiteSpace=wrap;html=1;fillColor=#f5f5f5;fontColor=#333333;strokeColor=#666666;fontSize=18;" vertex="1" parent="3D7FDG2aXA9G618_Kong-1">
          <mxGeometry x="-2640" y="-1270" width="120" height="276.8" as="geometry" />
        </mxCell>
        <mxCell id="Rwwb5F9lOs-8TZ5zhWSB-54" value="DevOps" style="rounded=0;whiteSpace=wrap;html=1;fillColor=#f5f5f5;fontColor=#333333;strokeColor=#666666;fontSize=18;" vertex="1" parent="3D7FDG2aXA9G618_Kong-1">
          <mxGeometry x="-2640" y="-980" width="120" height="276.8" as="geometry" />
        </mxCell>
        <mxCell id="Rwwb5F9lOs-8TZ5zhWSB-64" value="Финансы" style="rounded=0;whiteSpace=wrap;html=1;fillColor=#f5f5f5;fontColor=#333333;strokeColor=#666666;fontSize=18;" vertex="1" parent="3D7FDG2aXA9G618_Kong-1">
          <mxGeometry x="-2640" y="-690" width="120" height="100" as="geometry" />
        </mxCell>
        <mxCell id="Rwwb5F9lOs-8TZ5zhWSB-66" value="" style="shape=rect;fillColor=#fff2cc;strokeColor=none;fontSize=24;html=1;whiteSpace=wrap;align=left;verticalAlign=top;spacing=5;rounded=0;" vertex="1" parent="3D7FDG2aXA9G618_Kong-1">
          <mxGeometry x="-2520" y="-1270" width="580" height="276.8" as="geometry" />
        </mxCell>
        <mxCell id="Rwwb5F9lOs-8TZ5zhWSB-67" value="" style="shape=rect;fillColor=#fff2cc;strokeColor=none;fontSize=24;html=1;whiteSpace=wrap;align=left;verticalAlign=top;spacing=5;rounded=0;" vertex="1" parent="3D7FDG2aXA9G618_Kong-1">
          <mxGeometry x="-1940" y="-1270" width="580" height="276.8" as="geometry" />
        </mxCell>
        <mxCell id="Rwwb5F9lOs-8TZ5zhWSB-68" value="" style="shape=rect;fillColor=#fff2cc;strokeColor=none;fontSize=24;html=1;whiteSpace=wrap;align=left;verticalAlign=top;spacing=5;rounded=0;" vertex="1" parent="3D7FDG2aXA9G618_Kong-1">
          <mxGeometry x="-1360" y="-1270" width="580" height="276.8" as="geometry" />
        </mxCell>
        <mxCell id="Rwwb5F9lOs-8TZ5zhWSB-69" value="" style="shape=rect;fillColor=#fff2cc;strokeColor=none;fontSize=24;html=1;whiteSpace=wrap;align=left;verticalAlign=top;spacing=5;rounded=0;" vertex="1" parent="3D7FDG2aXA9G618_Kong-1">
          <mxGeometry x="-780" y="-1270" width="580" height="276.8" as="geometry" />
        </mxCell>
        <mxCell id="Rwwb5F9lOs-8TZ5zhWSB-75" value="T6 - Разработка&lt;div&gt;структур данных&lt;/div&gt;&lt;div&gt;и их стандартизация&lt;/div&gt;" style="shape=rect;fillColor=#ffe6cc;strokeColor=#d79b00;fontSize=18;html=1;whiteSpace=wrap;align=center;verticalAlign=top;spacing=5;rounded=0;" vertex="1" parent="3D7FDG2aXA9G618_Kong-1">
          <mxGeometry x="-2300" y="-1263.2" width="350" height="80" as="geometry" />
        </mxCell>
        <mxCell id="Rwwb5F9lOs-8TZ5zhWSB-76" value="T3 - Аудит&lt;div&gt;технического&lt;/div&gt;&lt;div&gt;радара&lt;/div&gt;" style="shape=rect;fillColor=#ffe6cc;strokeColor=#d79b00;fontSize=18;html=1;whiteSpace=wrap;align=center;verticalAlign=top;spacing=5;rounded=0;" vertex="1" parent="3D7FDG2aXA9G618_Kong-1">
          <mxGeometry x="-2515" y="-1263.2" width="205" height="80" as="geometry" />
        </mxCell>
        <mxCell id="Rwwb5F9lOs-8TZ5zhWSB-77" value="T7 - Изучение&lt;div&gt;инструментов&lt;/div&gt;&lt;div&gt;управления хранилищем&lt;/div&gt;" style="shape=rect;fillColor=#ffe6cc;strokeColor=#d79b00;fontSize=18;html=1;whiteSpace=wrap;align=center;verticalAlign=top;spacing=5;rounded=0;" vertex="1" parent="3D7FDG2aXA9G618_Kong-1">
          <mxGeometry x="-2130" y="-1171.6" width="400" height="80" as="geometry" />
        </mxCell>
        <mxCell id="Rwwb5F9lOs-8TZ5zhWSB-78" value="" style="shape=rect;fillColor=#fff2cc;strokeColor=none;fontSize=24;html=1;whiteSpace=wrap;align=left;verticalAlign=top;spacing=5;rounded=0;" vertex="1" parent="3D7FDG2aXA9G618_Kong-1">
          <mxGeometry x="-2520" y="-980" width="580" height="276.8" as="geometry" />
        </mxCell>
        <mxCell id="Rwwb5F9lOs-8TZ5zhWSB-79" value="" style="shape=rect;fillColor=#fff2cc;strokeColor=none;fontSize=24;html=1;whiteSpace=wrap;align=left;verticalAlign=top;spacing=5;rounded=0;" vertex="1" parent="3D7FDG2aXA9G618_Kong-1">
          <mxGeometry x="-1940" y="-980" width="580" height="276.8" as="geometry" />
        </mxCell>
        <mxCell id="Rwwb5F9lOs-8TZ5zhWSB-80" value="T8 - Подготовка&lt;div&gt;инструментов CI/CD&lt;/div&gt;" style="shape=rect;fillColor=#ffe6cc;strokeColor=#d79b00;fontSize=18;html=1;whiteSpace=wrap;align=center;verticalAlign=top;spacing=5;rounded=0;" vertex="1" parent="3D7FDG2aXA9G618_Kong-1">
          <mxGeometry x="-2300" y="-973.2" width="350" height="80" as="geometry" />
        </mxCell>
        <mxCell id="Rwwb5F9lOs-8TZ5zhWSB-81" value="T3 - Аудит&lt;div&gt;технического&lt;/div&gt;&lt;div&gt;радара&lt;/div&gt;" style="shape=rect;fillColor=#ffe6cc;strokeColor=#d79b00;fontSize=18;html=1;whiteSpace=wrap;align=center;verticalAlign=top;spacing=5;rounded=0;" vertex="1" parent="3D7FDG2aXA9G618_Kong-1">
          <mxGeometry x="-2515" y="-973.2" width="205" height="80" as="geometry" />
        </mxCell>
        <mxCell id="Rwwb5F9lOs-8TZ5zhWSB-84" value="T7 - Изучение&lt;div&gt;инструментов&lt;/div&gt;&lt;div&gt;управления хранилищем&lt;/div&gt;" style="shape=rect;fillColor=#ffe6cc;strokeColor=#d79b00;fontSize=18;html=1;whiteSpace=wrap;align=center;verticalAlign=top;spacing=5;rounded=0;" vertex="1" parent="3D7FDG2aXA9G618_Kong-1">
          <mxGeometry x="-2130" y="-881.6" width="240" height="80" as="geometry" />
        </mxCell>
        <mxCell id="Rwwb5F9lOs-8TZ5zhWSB-85" value="T9 - Развертывание&lt;br&gt;&lt;div&gt;новой инфраструктуры Data LakeHouse&lt;/div&gt;" style="shape=rect;fillColor=#ffe6cc;strokeColor=#d79b00;fontSize=18;html=1;whiteSpace=wrap;align=center;verticalAlign=top;spacing=5;rounded=0;" vertex="1" parent="3D7FDG2aXA9G618_Kong-1">
          <mxGeometry x="-1940" y="-973.2" width="440" height="80" as="geometry" />
        </mxCell>
        <mxCell id="Rwwb5F9lOs-8TZ5zhWSB-86" value="" style="shape=rect;fillColor=#fff2cc;strokeColor=none;fontSize=24;html=1;whiteSpace=wrap;align=left;verticalAlign=top;spacing=5;rounded=0;" vertex="1" parent="3D7FDG2aXA9G618_Kong-1">
          <mxGeometry x="-1360" y="-980" width="580" height="276.8" as="geometry" />
        </mxCell>
        <mxCell id="Rwwb5F9lOs-8TZ5zhWSB-87" value="" style="shape=rect;fillColor=#fff2cc;strokeColor=none;fontSize=24;html=1;whiteSpace=wrap;align=left;verticalAlign=top;spacing=5;rounded=0;" vertex="1" parent="3D7FDG2aXA9G618_Kong-1">
          <mxGeometry x="-780" y="-980" width="580" height="276.8" as="geometry" />
        </mxCell>
        <mxCell id="Rwwb5F9lOs-8TZ5zhWSB-88" value="T10 - Адаптация&lt;br&gt;&lt;div&gt;легаси систем&lt;/div&gt;" style="shape=rect;fillColor=#ffe6cc;strokeColor=#d79b00;fontSize=18;html=1;whiteSpace=wrap;align=center;verticalAlign=top;spacing=5;rounded=0;" vertex="1" parent="3D7FDG2aXA9G618_Kong-1">
          <mxGeometry x="-1940" y="-1080" width="440" height="80" as="geometry" />
        </mxCell>
        <mxCell id="Rwwb5F9lOs-8TZ5zhWSB-89" value="T11 - Настройка&lt;div&gt;новой шины сообщений Kafka&lt;/div&gt;" style="shape=rect;fillColor=#ffe6cc;strokeColor=#d79b00;fontSize=18;html=1;whiteSpace=wrap;align=center;verticalAlign=top;spacing=5;rounded=0;" vertex="1" parent="3D7FDG2aXA9G618_Kong-1">
          <mxGeometry x="-1720" y="-1171.6000000000001" width="440" height="80" as="geometry" />
        </mxCell>
        <mxCell id="Rwwb5F9lOs-8TZ5zhWSB-90" value="T12 - Проектирование&lt;br&gt;&lt;div&gt;сервисов&lt;/div&gt;" style="shape=rect;fillColor=#ffe6cc;strokeColor=#d79b00;fontSize=18;html=1;whiteSpace=wrap;align=center;verticalAlign=top;spacing=5;rounded=0;" vertex="1" parent="3D7FDG2aXA9G618_Kong-1">
          <mxGeometry x="-1940" y="-1370" width="440" height="80" as="geometry" />
        </mxCell>
        <mxCell id="Rwwb5F9lOs-8TZ5zhWSB-91" value="T12 - Проектирование&lt;br&gt;&lt;div&gt;сервисов&lt;/div&gt;" style="shape=rect;fillColor=#ffe6cc;strokeColor=#d79b00;fontSize=18;html=1;whiteSpace=wrap;align=center;verticalAlign=top;spacing=5;rounded=0;" vertex="1" parent="3D7FDG2aXA9G618_Kong-1">
          <mxGeometry x="-1940" y="-1263.2" width="300" height="80" as="geometry" />
        </mxCell>
        <mxCell id="Rwwb5F9lOs-8TZ5zhWSB-92" value="T13 - Разработка&lt;br&gt;&lt;div&gt;сервисов&lt;/div&gt;" style="shape=rect;fillColor=#ffe6cc;strokeColor=#d79b00;fontSize=18;html=1;whiteSpace=wrap;align=center;verticalAlign=top;spacing=5;rounded=0;" vertex="1" parent="3D7FDG2aXA9G618_Kong-1">
          <mxGeometry x="-1630" y="-1263.2" width="710" height="80" as="geometry" />
        </mxCell>
        <mxCell id="Rwwb5F9lOs-8TZ5zhWSB-93" value="T13 - Тестирование&lt;br&gt;&lt;div&gt;сервисов&lt;/div&gt;" style="shape=rect;fillColor=#ffe6cc;strokeColor=#d79b00;fontSize=18;html=1;whiteSpace=wrap;align=center;verticalAlign=top;spacing=5;rounded=0;" vertex="1" parent="3D7FDG2aXA9G618_Kong-1">
          <mxGeometry x="-910" y="-1263.2" width="270" height="80" as="geometry" />
        </mxCell>
        <mxCell id="Rwwb5F9lOs-8TZ5zhWSB-94" value="T13 - Тестирование&lt;br&gt;&lt;div&gt;сервисов&lt;/div&gt;" style="shape=rect;fillColor=#ffe6cc;strokeColor=#d79b00;fontSize=18;html=1;whiteSpace=wrap;align=center;verticalAlign=top;spacing=5;rounded=0;" vertex="1" parent="3D7FDG2aXA9G618_Kong-1">
          <mxGeometry x="-1040" y="-973.2" width="600" height="80" as="geometry" />
        </mxCell>
        <mxCell id="Rwwb5F9lOs-8TZ5zhWSB-95" value="T14 - Отладка&lt;br&gt;&lt;div&gt;сервисов&lt;/div&gt;" style="shape=rect;fillColor=#ffe6cc;strokeColor=#d79b00;fontSize=18;html=1;whiteSpace=wrap;align=center;verticalAlign=top;spacing=5;rounded=0;" vertex="1" parent="3D7FDG2aXA9G618_Kong-1">
          <mxGeometry x="-630" y="-1263.2" width="420" height="80" as="geometry" />
        </mxCell>
        <mxCell id="Rwwb5F9lOs-8TZ5zhWSB-96" value="T15 - Создание документации" style="shape=rect;fillColor=#ffe6cc;strokeColor=#d79b00;fontSize=18;html=1;whiteSpace=wrap;align=center;verticalAlign=top;spacing=5;rounded=0;" vertex="1" parent="3D7FDG2aXA9G618_Kong-1">
          <mxGeometry x="-1270" y="-1171.6" width="1060" height="80" as="geometry" />
        </mxCell>
        <mxCell id="Rwwb5F9lOs-8TZ5zhWSB-97" value="T16 - Отладка&lt;br&gt;&lt;div&gt;производительности&lt;/div&gt;" style="shape=rect;fillColor=#ffe6cc;strokeColor=#d79b00;fontSize=18;html=1;whiteSpace=wrap;align=center;verticalAlign=top;spacing=5;rounded=0;" vertex="1" parent="3D7FDG2aXA9G618_Kong-1">
          <mxGeometry x="-630" y="-1080" width="420" height="80" as="geometry" />
        </mxCell>
        <mxCell id="Rwwb5F9lOs-8TZ5zhWSB-98" value="T17 - Аудит&lt;div&gt;информационной безопасности&lt;/div&gt;" style="shape=rect;fillColor=#ffe6cc;strokeColor=#d79b00;fontSize=18;html=1;whiteSpace=wrap;align=center;verticalAlign=top;spacing=5;rounded=0;" vertex="1" parent="3D7FDG2aXA9G618_Kong-1">
          <mxGeometry x="-630" y="-1370" width="420" height="80" as="geometry" />
        </mxCell>
        <mxCell id="Rwwb5F9lOs-8TZ5zhWSB-99" value="T18 - Обучение&lt;div&gt;сотрудников доменов продуктовому подходу в работе с данными&lt;/div&gt;" style="shape=rect;fillColor=#ffe6cc;strokeColor=#d79b00;fontSize=18;html=1;whiteSpace=wrap;align=center;verticalAlign=top;spacing=5;rounded=0;" vertex="1" parent="3D7FDG2aXA9G618_Kong-1">
          <mxGeometry x="-1490" y="-1370" width="850" height="80" as="geometry" />
        </mxCell>
        <mxCell id="Rwwb5F9lOs-8TZ5zhWSB-100" value="T19 - Планирование&lt;div&gt;подключения новых доменов&lt;/div&gt;" style="shape=rect;fillColor=#ffe6cc;strokeColor=#d79b00;fontSize=18;html=1;whiteSpace=wrap;align=center;verticalAlign=top;spacing=5;rounded=0;" vertex="1" parent="3D7FDG2aXA9G618_Kong-1">
          <mxGeometry x="-630" y="-1460" width="420" height="80" as="geometry" />
        </mxCell>
        <mxCell id="Rwwb5F9lOs-8TZ5zhWSB-101" value="T20 - Перенос&lt;br&gt;&lt;div&gt;легаси систем&lt;/div&gt;" style="shape=rect;fillColor=#ffe6cc;strokeColor=#d79b00;fontSize=18;html=1;whiteSpace=wrap;align=center;verticalAlign=top;spacing=5;rounded=0;" vertex="1" parent="3D7FDG2aXA9G618_Kong-1">
          <mxGeometry x="-1490" y="-1080" width="850" height="80" as="geometry" />
        </mxCell>
        <mxCell id="Rwwb5F9lOs-8TZ5zhWSB-102" value="T21 - Настройка&lt;br&gt;&lt;div&gt;сервисов для клиентов&lt;/div&gt;" style="shape=rect;fillColor=#ffe6cc;strokeColor=#d79b00;fontSize=18;html=1;whiteSpace=wrap;align=center;verticalAlign=top;spacing=5;rounded=0;" vertex="1" parent="3D7FDG2aXA9G618_Kong-1">
          <mxGeometry x="-630" y="-881.6" width="420" height="80" as="geometry" />
        </mxCell>
        <mxCell id="Rwwb5F9lOs-8TZ5zhWSB-103" value="T22 - Подготовка&lt;br&gt;&lt;div&gt;рабочих мест клиентов&lt;/div&gt;" style="shape=rect;fillColor=#ffe6cc;strokeColor=#d79b00;fontSize=18;html=1;whiteSpace=wrap;align=center;verticalAlign=top;spacing=5;rounded=0;" vertex="1" parent="3D7FDG2aXA9G618_Kong-1">
          <mxGeometry x="-830" y="-881.6" width="190" height="80" as="geometry" />
        </mxCell>
        <mxCell id="Rwwb5F9lOs-8TZ5zhWSB-104" value="T23 - Поддержка&lt;br&gt;&lt;div&gt;инфраструктуры Data LakeHouse&lt;/div&gt;" style="shape=rect;fillColor=#ffe6cc;strokeColor=#d79b00;fontSize=18;html=1;whiteSpace=wrap;align=center;verticalAlign=top;spacing=5;rounded=0;" vertex="1" parent="3D7FDG2aXA9G618_Kong-1">
          <mxGeometry x="-1490" y="-790" width="1280" height="80" as="geometry" />
        </mxCell>
        <mxCell id="Rwwb5F9lOs-8TZ5zhWSB-105" value="T24 - Отладка&lt;br&gt;&lt;div&gt;новой инфраструктуры Data LakeHouse&lt;/div&gt;" style="shape=rect;fillColor=#ffe6cc;strokeColor=#d79b00;fontSize=18;html=1;whiteSpace=wrap;align=center;verticalAlign=top;spacing=5;rounded=0;" vertex="1" parent="3D7FDG2aXA9G618_Kong-1">
          <mxGeometry x="-1490" y="-973.2" width="440" height="80" as="geometry" />
        </mxCell>
        <mxCell id="Rwwb5F9lOs-8TZ5zhWSB-106" value="T25 - Перенос&lt;br&gt;&lt;div&gt;данных в Data LakeHouse&lt;/div&gt;" style="shape=rect;fillColor=#ffe6cc;strokeColor=#d79b00;fontSize=18;html=1;whiteSpace=wrap;align=center;verticalAlign=top;spacing=5;rounded=0;" vertex="1" parent="3D7FDG2aXA9G618_Kong-1">
          <mxGeometry x="-1880" y="-881.6" width="1040" height="80" as="geometry" />
        </mxCell>
        <mxCell id="Rwwb5F9lOs-8TZ5zhWSB-107" value="" style="shape=rect;fillColor=#fff2cc;strokeColor=none;fontSize=24;html=1;whiteSpace=wrap;align=left;verticalAlign=top;spacing=5;rounded=0;" vertex="1" parent="3D7FDG2aXA9G618_Kong-1">
          <mxGeometry x="-2520" y="-690" width="580" height="100" as="geometry" />
        </mxCell>
        <mxCell id="Rwwb5F9lOs-8TZ5zhWSB-108" value="" style="shape=rect;fillColor=#fff2cc;strokeColor=none;fontSize=24;html=1;whiteSpace=wrap;align=left;verticalAlign=top;spacing=5;rounded=0;" vertex="1" parent="3D7FDG2aXA9G618_Kong-1">
          <mxGeometry x="-1940" y="-690" width="580" height="100" as="geometry" />
        </mxCell>
        <mxCell id="Rwwb5F9lOs-8TZ5zhWSB-109" value="" style="shape=rect;fillColor=#fff2cc;strokeColor=none;fontSize=24;html=1;whiteSpace=wrap;align=left;verticalAlign=top;spacing=5;rounded=0;" vertex="1" parent="3D7FDG2aXA9G618_Kong-1">
          <mxGeometry x="-1360" y="-690" width="580" height="100" as="geometry" />
        </mxCell>
        <mxCell id="Rwwb5F9lOs-8TZ5zhWSB-110" value="" style="shape=rect;fillColor=#fff2cc;strokeColor=none;fontSize=24;html=1;whiteSpace=wrap;align=left;verticalAlign=top;spacing=5;rounded=0;" vertex="1" parent="3D7FDG2aXA9G618_Kong-1">
          <mxGeometry x="-780" y="-690" width="580" height="100" as="geometry" />
        </mxCell>
        <mxCell id="Rwwb5F9lOs-8TZ5zhWSB-112" value="T27 - Обучение&lt;div&gt;сотрудников доменов продуктовому подходу в работе с данными&lt;/div&gt;" style="shape=rect;fillColor=#ffe6cc;strokeColor=#d79b00;fontSize=18;html=1;whiteSpace=wrap;align=center;verticalAlign=top;spacing=5;rounded=0;" vertex="1" parent="3D7FDG2aXA9G618_Kong-1">
          <mxGeometry x="-1350" y="-680" width="630" height="80" as="geometry" />
        </mxCell>
        <mxCell id="Rwwb5F9lOs-8TZ5zhWSB-113" value="T28 - Формирование&lt;div&gt;организации доменов&lt;/div&gt;" style="shape=rect;fillColor=#ffe6cc;strokeColor=#d79b00;fontSize=18;html=1;whiteSpace=wrap;align=center;verticalAlign=top;spacing=5;rounded=0;" vertex="1" parent="3D7FDG2aXA9G618_Kong-1">
          <mxGeometry x="-1940" y="-680" width="580" height="80" as="geometry" />
        </mxCell>
        <mxCell id="Rwwb5F9lOs-8TZ5zhWSB-114" value="T26 - Обучение&lt;div&gt;новым сервисам&lt;/div&gt;" style="shape=rect;fillColor=#ffe6cc;strokeColor=#d79b00;fontSize=18;html=1;whiteSpace=wrap;align=center;verticalAlign=top;spacing=5;rounded=0;" vertex="1" parent="3D7FDG2aXA9G618_Kong-1">
          <mxGeometry x="-710" y="-680" width="500" height="80" as="geometry" />
        </mxCell>
        <mxCell id="Rwwb5F9lOs-8TZ5zhWSB-115" value="Клиники" style="rounded=0;whiteSpace=wrap;html=1;fillColor=#f5f5f5;fontColor=#333333;strokeColor=#666666;fontSize=18;" vertex="1" parent="3D7FDG2aXA9G618_Kong-1">
          <mxGeometry x="-2640" y="-580" width="120" height="100" as="geometry" />
        </mxCell>
        <mxCell id="Rwwb5F9lOs-8TZ5zhWSB-116" value="" style="shape=rect;fillColor=#fff2cc;strokeColor=none;fontSize=24;html=1;whiteSpace=wrap;align=left;verticalAlign=top;spacing=5;rounded=0;" vertex="1" parent="3D7FDG2aXA9G618_Kong-1">
          <mxGeometry x="-2520" y="-580" width="580" height="100" as="geometry" />
        </mxCell>
        <mxCell id="Rwwb5F9lOs-8TZ5zhWSB-117" value="" style="shape=rect;fillColor=#fff2cc;strokeColor=none;fontSize=24;html=1;whiteSpace=wrap;align=left;verticalAlign=top;spacing=5;rounded=0;" vertex="1" parent="3D7FDG2aXA9G618_Kong-1">
          <mxGeometry x="-1940" y="-580" width="580" height="100" as="geometry" />
        </mxCell>
        <mxCell id="Rwwb5F9lOs-8TZ5zhWSB-118" value="" style="shape=rect;fillColor=#fff2cc;strokeColor=none;fontSize=24;html=1;whiteSpace=wrap;align=left;verticalAlign=top;spacing=5;rounded=0;" vertex="1" parent="3D7FDG2aXA9G618_Kong-1">
          <mxGeometry x="-1360" y="-580" width="580" height="100" as="geometry" />
        </mxCell>
        <mxCell id="Rwwb5F9lOs-8TZ5zhWSB-119" value="" style="shape=rect;fillColor=#fff2cc;strokeColor=none;fontSize=24;html=1;whiteSpace=wrap;align=left;verticalAlign=top;spacing=5;rounded=0;" vertex="1" parent="3D7FDG2aXA9G618_Kong-1">
          <mxGeometry x="-780" y="-580" width="580" height="100" as="geometry" />
        </mxCell>
        <mxCell id="Rwwb5F9lOs-8TZ5zhWSB-120" value="T27 - Обучение&lt;div&gt;сотрудников доменов продуктовому подходу в работе с данными&lt;/div&gt;" style="shape=rect;fillColor=#ffe6cc;strokeColor=#d79b00;fontSize=18;html=1;whiteSpace=wrap;align=center;verticalAlign=top;spacing=5;rounded=0;" vertex="1" parent="3D7FDG2aXA9G618_Kong-1">
          <mxGeometry x="-1350" y="-570" width="630" height="80" as="geometry" />
        </mxCell>
        <mxCell id="Rwwb5F9lOs-8TZ5zhWSB-121" value="T28 - Формирование&lt;div&gt;организации доменов&lt;/div&gt;" style="shape=rect;fillColor=#ffe6cc;strokeColor=#d79b00;fontSize=18;html=1;whiteSpace=wrap;align=center;verticalAlign=top;spacing=5;rounded=0;" vertex="1" parent="3D7FDG2aXA9G618_Kong-1">
          <mxGeometry x="-1940" y="-570" width="580" height="80" as="geometry" />
        </mxCell>
        <mxCell id="Rwwb5F9lOs-8TZ5zhWSB-122" value="T26 - Обучение&lt;div&gt;новым сервисам&lt;/div&gt;" style="shape=rect;fillColor=#ffe6cc;strokeColor=#d79b00;fontSize=18;html=1;whiteSpace=wrap;align=center;verticalAlign=top;spacing=5;rounded=0;" vertex="1" parent="3D7FDG2aXA9G618_Kong-1">
          <mxGeometry x="-710" y="-570" width="500" height="80" as="geometry" />
        </mxCell>
        <mxCell id="Rwwb5F9lOs-8TZ5zhWSB-123" value="Аналитики" style="rounded=0;whiteSpace=wrap;html=1;fillColor=#f5f5f5;fontColor=#333333;strokeColor=#666666;fontSize=18;" vertex="1" parent="3D7FDG2aXA9G618_Kong-1">
          <mxGeometry x="-2640" y="-470" width="120" height="100" as="geometry" />
        </mxCell>
        <mxCell id="Rwwb5F9lOs-8TZ5zhWSB-124" value="" style="shape=rect;fillColor=#fff2cc;strokeColor=none;fontSize=24;html=1;whiteSpace=wrap;align=left;verticalAlign=top;spacing=5;rounded=0;" vertex="1" parent="3D7FDG2aXA9G618_Kong-1">
          <mxGeometry x="-2520" y="-470" width="580" height="100" as="geometry" />
        </mxCell>
        <mxCell id="Rwwb5F9lOs-8TZ5zhWSB-125" value="" style="shape=rect;fillColor=#fff2cc;strokeColor=none;fontSize=24;html=1;whiteSpace=wrap;align=left;verticalAlign=top;spacing=5;rounded=0;" vertex="1" parent="3D7FDG2aXA9G618_Kong-1">
          <mxGeometry x="-1940" y="-470" width="580" height="100" as="geometry" />
        </mxCell>
        <mxCell id="Rwwb5F9lOs-8TZ5zhWSB-126" value="" style="shape=rect;fillColor=#fff2cc;strokeColor=none;fontSize=24;html=1;whiteSpace=wrap;align=left;verticalAlign=top;spacing=5;rounded=0;" vertex="1" parent="3D7FDG2aXA9G618_Kong-1">
          <mxGeometry x="-1360" y="-470" width="580" height="100" as="geometry" />
        </mxCell>
        <mxCell id="Rwwb5F9lOs-8TZ5zhWSB-127" value="" style="shape=rect;fillColor=#fff2cc;strokeColor=none;fontSize=24;html=1;whiteSpace=wrap;align=left;verticalAlign=top;spacing=5;rounded=0;" vertex="1" parent="3D7FDG2aXA9G618_Kong-1">
          <mxGeometry x="-780" y="-470" width="580" height="100" as="geometry" />
        </mxCell>
        <mxCell id="Rwwb5F9lOs-8TZ5zhWSB-128" value="T27 - Обучение&lt;div&gt;сотрудников доменов продуктовому подходу в работе с данными&lt;/div&gt;" style="shape=rect;fillColor=#ffe6cc;strokeColor=#d79b00;fontSize=18;html=1;whiteSpace=wrap;align=center;verticalAlign=top;spacing=5;rounded=0;" vertex="1" parent="3D7FDG2aXA9G618_Kong-1">
          <mxGeometry x="-1350" y="-460" width="630" height="80" as="geometry" />
        </mxCell>
        <mxCell id="Rwwb5F9lOs-8TZ5zhWSB-129" value="T28 - Формирование&lt;div&gt;организации доменов&lt;/div&gt;" style="shape=rect;fillColor=#ffe6cc;strokeColor=#d79b00;fontSize=18;html=1;whiteSpace=wrap;align=center;verticalAlign=top;spacing=5;rounded=0;" vertex="1" parent="3D7FDG2aXA9G618_Kong-1">
          <mxGeometry x="-1940" y="-460" width="580" height="80" as="geometry" />
        </mxCell>
        <mxCell id="Rwwb5F9lOs-8TZ5zhWSB-130" value="T26 - Обучение&lt;div&gt;новым сервисам&lt;/div&gt;" style="shape=rect;fillColor=#ffe6cc;strokeColor=#d79b00;fontSize=18;html=1;whiteSpace=wrap;align=center;verticalAlign=top;spacing=5;rounded=0;" vertex="1" parent="3D7FDG2aXA9G618_Kong-1">
          <mxGeometry x="-710" y="-460" width="500" height="80" as="geometry" />
        </mxCell>
        <mxCell id="Rwwb5F9lOs-8TZ5zhWSB-131" value="AI/ML&lt;div&gt;Инженеры&lt;/div&gt;" style="rounded=0;whiteSpace=wrap;html=1;fillColor=#f5f5f5;fontColor=#333333;strokeColor=#666666;fontSize=18;" vertex="1" parent="3D7FDG2aXA9G618_Kong-1">
          <mxGeometry x="-2640" y="-360" width="120" height="100" as="geometry" />
        </mxCell>
        <mxCell id="Rwwb5F9lOs-8TZ5zhWSB-132" value="" style="shape=rect;fillColor=#fff2cc;strokeColor=none;fontSize=24;html=1;whiteSpace=wrap;align=left;verticalAlign=top;spacing=5;rounded=0;" vertex="1" parent="3D7FDG2aXA9G618_Kong-1">
          <mxGeometry x="-2520" y="-360" width="580" height="100" as="geometry" />
        </mxCell>
        <mxCell id="Rwwb5F9lOs-8TZ5zhWSB-133" value="" style="shape=rect;fillColor=#fff2cc;strokeColor=none;fontSize=24;html=1;whiteSpace=wrap;align=left;verticalAlign=top;spacing=5;rounded=0;" vertex="1" parent="3D7FDG2aXA9G618_Kong-1">
          <mxGeometry x="-1940" y="-360" width="580" height="100" as="geometry" />
        </mxCell>
        <mxCell id="Rwwb5F9lOs-8TZ5zhWSB-134" value="" style="shape=rect;fillColor=#fff2cc;strokeColor=none;fontSize=24;html=1;whiteSpace=wrap;align=left;verticalAlign=top;spacing=5;rounded=0;" vertex="1" parent="3D7FDG2aXA9G618_Kong-1">
          <mxGeometry x="-1360" y="-360" width="580" height="100" as="geometry" />
        </mxCell>
        <mxCell id="Rwwb5F9lOs-8TZ5zhWSB-135" value="" style="shape=rect;fillColor=#fff2cc;strokeColor=none;fontSize=24;html=1;whiteSpace=wrap;align=left;verticalAlign=top;spacing=5;rounded=0;" vertex="1" parent="3D7FDG2aXA9G618_Kong-1">
          <mxGeometry x="-780" y="-360" width="580" height="100" as="geometry" />
        </mxCell>
        <mxCell id="Rwwb5F9lOs-8TZ5zhWSB-136" value="T27 - Обучение&lt;div&gt;сотрудников доменов продуктовому подходу в работе с данными&lt;/div&gt;" style="shape=rect;fillColor=#ffe6cc;strokeColor=#d79b00;fontSize=18;html=1;whiteSpace=wrap;align=center;verticalAlign=top;spacing=5;rounded=0;" vertex="1" parent="3D7FDG2aXA9G618_Kong-1">
          <mxGeometry x="-1350" y="-350" width="630" height="80" as="geometry" />
        </mxCell>
        <mxCell id="Rwwb5F9lOs-8TZ5zhWSB-137" value="T28 - Формирование&lt;div&gt;организации доменов&lt;/div&gt;" style="shape=rect;fillColor=#ffe6cc;strokeColor=#d79b00;fontSize=18;html=1;whiteSpace=wrap;align=center;verticalAlign=top;spacing=5;rounded=0;" vertex="1" parent="3D7FDG2aXA9G618_Kong-1">
          <mxGeometry x="-1940" y="-350" width="580" height="80" as="geometry" />
        </mxCell>
        <mxCell id="Rwwb5F9lOs-8TZ5zhWSB-138" value="T26 - Обучение&lt;div&gt;новым сервисам&lt;/div&gt;" style="shape=rect;fillColor=#ffe6cc;strokeColor=#d79b00;fontSize=18;html=1;whiteSpace=wrap;align=center;verticalAlign=top;spacing=5;rounded=0;" vertex="1" parent="3D7FDG2aXA9G618_Kong-1">
          <mxGeometry x="-710" y="-350" width="500" height="80" as="geometry" />
        </mxCell>
      </root>
    </mxGraphModel>
  </diagram>
  <diagram id="6faDem5PxRRIMGQd80wj" name="Roadmap_change">
    <mxGraphModel grid="1" page="1" gridSize="10" guides="1" tooltips="1" connect="1" arrows="1" fold="1" pageScale="1" pageWidth="3300" pageHeight="2339" math="0" shadow="0">
      <root>
        <mxCell id="0" />
        <mxCell id="1" parent="0" />
        <mxCell id="QlwB00z0-otb056kdUWZ-19" value="" style="shape=rect;fillColor=#fff2cc;strokeColor=none;fontSize=24;html=1;whiteSpace=wrap;align=left;verticalAlign=top;spacing=5;rounded=0;" vertex="1" parent="1">
          <mxGeometry x="-2500" y="-530" width="1620" height="190" as="geometry" />
        </mxCell>
        <mxCell id="QlwB00z0-otb056kdUWZ-18" value="" style="shape=rect;fillColor=#fff2cc;strokeColor=none;fontSize=24;html=1;whiteSpace=wrap;align=left;verticalAlign=top;spacing=5;rounded=0;" vertex="1" parent="1">
          <mxGeometry x="-2500" y="-730" width="1620" height="180" as="geometry" />
        </mxCell>
        <mxCell id="QlwB00z0-otb056kdUWZ-17" value="" style="shape=rect;fillColor=#fff2cc;strokeColor=none;fontSize=24;html=1;whiteSpace=wrap;align=left;verticalAlign=top;spacing=5;rounded=0;" vertex="1" parent="1">
          <mxGeometry x="-2500" y="-930" width="1610" height="180" as="geometry" />
        </mxCell>
        <mxCell id="QlwB00z0-otb056kdUWZ-3" value="" style="shape=rect;fillColor=#fff2cc;strokeColor=none;fontSize=24;html=1;whiteSpace=wrap;align=left;verticalAlign=top;spacing=5;rounded=0;" vertex="1" parent="1">
          <mxGeometry x="-2500" y="-1146.8" width="1610" height="196.8" as="geometry" />
        </mxCell>
        <mxCell id="QlwB00z0-otb056kdUWZ-4" value="T1 - API сервиса интеграции депозитов АБС" style="shape=rect;fillColor=#ffe6cc;strokeColor=#d79b00;fontSize=18;html=1;whiteSpace=wrap;align=left;verticalAlign=top;spacing=5;rounded=0;" vertex="1" parent="1">
          <mxGeometry x="-2480" y="-1120" width="390" height="50" as="geometry" />
        </mxCell>
        <mxCell id="QlwB00z0-otb056kdUWZ-5" value="T2 - Передача файлов на SFTP-сервер" style="shape=rect;fillColor=#ffe6cc;strokeColor=#d79b00;fontSize=18;html=1;whiteSpace=wrap;align=center;verticalAlign=top;spacing=5;rounded=0;" vertex="1" parent="1">
          <mxGeometry x="-2120" y="-1040" width="550" height="60" as="geometry" />
        </mxCell>
        <mxCell id="QlwB00z0-otb056kdUWZ-6" value="АБС&lt;div&gt;Сервис интеграции депозитов&lt;/div&gt;" style="rounded=0;whiteSpace=wrap;html=1;fillColor=#f5f5f5;fontColor=#333333;strokeColor=#666666;fontSize=18;" vertex="1" parent="1">
          <mxGeometry x="-2630" y="-1146.8" width="120" height="196.8" as="geometry" />
        </mxCell>
        <mxCell id="QlwB00z0-otb056kdUWZ-7" value="SFTP" style="rounded=0;whiteSpace=wrap;html=1;fillColor=#f5f5f5;fontColor=#333333;strokeColor=#666666;fontSize=18;" vertex="1" parent="1">
          <mxGeometry x="-2630" y="-930" width="120" height="180" as="geometry" />
        </mxCell>
        <mxCell id="QlwB00z0-otb056kdUWZ-8" value="Q2" style="shape=step;perimeter=stepPerimeter;whiteSpace=wrap;html=1;fixedSize=1;size=10;fillColor=#f5f5f5;strokeColor=#666666;fontSize=18;fontStyle=1;align=center;rounded=0;fontColor=#333333;" vertex="1" parent="1">
          <mxGeometry x="-2500" y="-1240" width="1610" height="74.4" as="geometry" />
        </mxCell>
        <mxCell id="QlwB00z0-otb056kdUWZ-11" value="T5 - Вывод ставок пользователю системы колл-центра" style="shape=rect;fillColor=#ffe6cc;strokeColor=#d79b00;fontSize=18;html=1;whiteSpace=wrap;align=center;verticalAlign=top;spacing=5;rounded=0;" vertex="1" parent="1">
          <mxGeometry x="-1860" y="-640" width="940" height="50" as="geometry" />
        </mxCell>
        <mxCell id="QlwB00z0-otb056kdUWZ-12" value="T4 - Получение ставок через API интеграции АБС" style="shape=rect;fillColor=#ffe6cc;strokeColor=#d79b00;fontSize=18;html=1;whiteSpace=wrap;align=center;verticalAlign=top;spacing=5;rounded=0;" vertex="1" parent="1">
          <mxGeometry x="-2060" y="-720" width="480" height="60" as="geometry" />
        </mxCell>
        <mxCell id="QlwB00z0-otb056kdUWZ-13" value="T6 - Получение файлов с SFTP для операторов партнера" style="shape=rect;fillColor=#ffe6cc;strokeColor=#d79b00;fontSize=18;html=1;whiteSpace=wrap;align=center;verticalAlign=top;spacing=5;rounded=0;" vertex="1" parent="1">
          <mxGeometry x="-1560" y="-470" width="640" height="50" as="geometry" />
        </mxCell>
        <mxCell id="QlwB00z0-otb056kdUWZ-14" value="Система колл-центра" style="rounded=0;whiteSpace=wrap;html=1;fillColor=#f5f5f5;fontColor=#333333;strokeColor=#666666;fontSize=18;" vertex="1" parent="1">
          <mxGeometry x="-2630" y="-730" width="120" height="180" as="geometry" />
        </mxCell>
        <mxCell id="QlwB00z0-otb056kdUWZ-15" value="Система&amp;nbsp; партнерского колл-центра" style="rounded=0;whiteSpace=wrap;html=1;fillColor=#f5f5f5;fontColor=#333333;strokeColor=#666666;fontSize=18;" vertex="1" parent="1">
          <mxGeometry x="-2630" y="-530" width="120" height="190" as="geometry" />
        </mxCell>
        <mxCell id="QlwB00z0-otb056kdUWZ-16" value="T3 - Развернуть SFTP сервер" style="shape=rect;fillColor=#ffe6cc;strokeColor=#d79b00;fontSize=18;html=1;whiteSpace=wrap;align=center;verticalAlign=top;spacing=5;rounded=0;" vertex="1" parent="1">
          <mxGeometry x="-2400" y="-910" width="280" height="60" as="geometry" />
        </mxCell>
      </root>
    </mxGraphModel>
  </diagram>
</mxfile>
